<svg id="FACE_LOGO" data-name="FACE LOGO" xmlns="http://www.w3.org/2000/svg" viewBox="0 0 788.45 774.87"><title>EZTiger-Head</title><g id="LOGO"><g id="Fill"><g id="Line"><path d="M559,558.92l.38-.67c-.14.16-.25.33-.37.49S559,558.86,559,558.92Z" transform="translate(-6.11 -14.13)"/><path d="M228.77,568.75l-.25.39C229,569.4,229.15,569.33,228.77,568.75Z" transform="translate(-6.11 -14.13)"/><path d="M556.45,150.68c-6.05-5.91-10.67-8.89-16.5-10.79h0c1.5-1,1.51-8.08-1.35-7.73-2.2.27-6.12,4.29-7.07,5.71h0c-2.09,4.92-5.34,10.83,1.22,13.91,7.81,3.66,15.47,8.65,24.84,10.17a48.57,48.57,0,0,1,4.63,5,4.09,4.09,0,0,0,6.38-5.11A53.23,53.23,0,0,0,556.45,150.68Zm-16.9-10.93h0C539.63,139.48,539.57,139.6,539.55,139.75Z" transform="translate(-6.11 -14.13)"/><path d="M466.58,377.05c-3.66-.75-6.56,1.59-7.78,4.78-1.12,2.93,1.07,4.71,2.94,5.12,5.4,1,7.25-1.56,7.32-5.28C469.09,380.07,467.72,377.28,466.58,377.05Z" transform="translate(-6.11 -14.13)"/><path d="M329.08,339.85c-3.32.61-6.4,2-5.88,6.23.25,2,1.59,3.49,4.28,3.29,3.11-.72,5.9-2.31,5.63-6.26A3.4,3.4,0,0,0,329.08,339.85Z" transform="translate(-6.11 -14.13)"/><path d="M324,379.32c-3,.55-4.62,2.72-4,5.35.27,1.14,3.12,2.33,4.8,2.33,2.52,0,5.07-1,4.89-4C329,379.33,326.72,378.8,324,379.32Z" transform="translate(-6.11 -14.13)"/><path d="M299.06,296.24c-4-.32-6.05,2.4-6.35,6.11-.19,2.47,1.88,3.28,3.94,3.27,3.06,0,4.84-1.66,5-4.83C301.45,298.87,301.28,296.42,299.06,296.24Z" transform="translate(-6.11 -14.13)"/><path d="M481.31,290a7.6,7.6,0,0,0-3.45,4c-.65,2.08,1,3.75,3.06,3.87,3.36.2,4.2-2.17,4.11-5.29C484.34,291.1,483.93,288.59,481.31,290Z" transform="translate(-6.11 -14.13)"/><path d="M583.73,205.81a4.07,4.07,0,0,0-3.49-4.6,4,4,0,0,0-1.8.18,1.59,1.59,0,0,0-.07-.2l-.12.3a4,4,0,0,0-2.61,3.21c-.2,1.46-.41,2.89-.62,4.31-11.84,26.21-28.08,44.66-63.95,36.85a74,74,0,0,0,9.57,9.64,4.06,4.06,0,0,0,3.5,2.84l.3,0c13.29,9.05,26.91,8.18,43.29-.86,15.42-8.5,20.34-21,14.7-43.28C582.92,211.47,583.34,208.65,583.73,205.81Z" transform="translate(-6.11 -14.13)"/><path d="M530.66,131.17a4.09,4.09,0,0,0,5.58-1.49,13.31,13.31,0,0,1,3.89-4.46c7.65-1.44,14.8,0,20.37,6.06,7.49,8.08,17.49,11.82,27.31,16.33,1.75,1.68,3.49,3.43,5.23,5.28a4.09,4.09,0,1,0,6-5.58c-2.67-2.85-5.36-5.49-8.06-8-1.61-1.93-3.28-3.79-4.7-5.8-8.65-12.33-20.33-15.9-33-16.63-4.7-1.43-9.47-2.6-14.48-.41a13.69,13.69,0,0,0-1.76.53c-1.84.52-2.78,2.34-5,4.58-.26.27-.73.45-.69.78a25.58,25.58,0,0,0-2.21,3.2A4.08,4.08,0,0,0,530.66,131.17Z" transform="translate(-6.11 -14.13)"/><path d="M198,157.53c-2.9.26-5.81.53-8.73.76a4.08,4.08,0,0,0-1,7.94c0,.16,38.25.45,59.82.45,1.84.47,3.69,1,5.52,1.59a4.09,4.09,0,1,0,2.64-7.74,85.87,85.87,0,0,0-18.15-3.9C224.32,152.08,209.53,152.53,198,157.53Z" transform="translate(-6.11 -14.13)"/><path d="M191.59,106.66a4.07,4.07,0,0,0,5.58-1.5,94.59,94.59,0,0,1,10.91-15.7,97.58,97.58,0,0,1,21-12.45,38.94,38.94,0,0,1,9.22-.45,4.08,4.08,0,1,0,.54-8.15,42.91,42.91,0,0,0-22.39,4.15,30.52,30.52,0,0,0-15.08,12.08,106.82,106.82,0,0,0-11.28,16.44A4.08,4.08,0,0,0,191.59,106.66Z" transform="translate(-6.11 -14.13)"/><path d="M132.35,148.06a4.06,4.06,0,0,0,1.37-.23,36.14,36.14,0,0,0,22.91-22.91,4.09,4.09,0,0,0-7.7-2.74A28,28,0,0,1,131,140.13a4.08,4.08,0,0,0,1.36,7.93Z" transform="translate(-6.11 -14.13)"/><path d="M601.34,129.92c1.57,5,3.73,11.84,12.08,13.93l1,.13a4.09,4.09,0,0,0,1-8c-3.74-.94-4.72-3.55-6.27-8.47-.35-1.11-.7-2.22-1.1-3.29a4.08,4.08,0,1,0-7.66,2.84C600.72,128,601,128.94,601.34,129.92Z" transform="translate(-6.11 -14.13)"/><path d="M127.07,128.83a4.1,4.1,0,0,0-5.78,0L109,141.09a4.08,4.08,0,1,0,5.78,5.77l12.25-12.25A4.08,4.08,0,0,0,127.07,128.83Z" transform="translate(-6.11 -14.13)"/><path d="M615.52,125.26c.87,2,2.2,5.13,5.84,6.27a36.66,36.66,0,0,0,16.22,11.05,4.08,4.08,0,1,0,2.73-7.7,27.91,27.91,0,0,1-17.94-17.94,4.07,4.07,0,0,0-5.21-2.48,20.44,20.44,0,0,1-2.68.92h-.11a4,4,0,0,0-4,4.1C610.43,121.73,615.25,124.65,615.52,125.26Z" transform="translate(-6.11 -14.13)"/><path d="M270.1,199.31a9.53,9.53,0,0,0-8.36-.87,12.22,12.22,0,0,0-7.35,7.41,23.37,23.37,0,0,0-.57,4.36s0,0,0,0c-.27,2.74.2,7.49,1.49,8.42,2.62,1.88,6,3.91,9.6,3.91a9.59,9.59,0,0,0,1.91-.19,10,10,0,0,0,6.57-5,15.11,15.11,0,0,0,1.94-11.17A11,11,0,0,0,270.1,199.31Zm-2.8,13.82a6.07,6.07,0,0,1-3.49,1,6.7,6.7,0,0,1-3.6-2.93h0c0-2.11,1-3.95,2.54-4.29a6.27,6.27,0,0,1,2-.32,4.68,4.68,0,0,1,3.19,2.33C268.38,210.07,268.06,211.56,267.3,213.13Z" transform="translate(-6.11 -14.13)"/><path d="M520.53,213.33a9.49,9.49,0,0,0,7.56-3.66,12.18,12.18,0,0,0,2.35-10.17,23.47,23.47,0,0,0-1.81-4l0,0c-1.21-2.47-4.11-6.26-5.7-6.37-3.22-.22-7.14-.18-10.22,1.73a9.79,9.79,0,0,0-1.52,1.17,10,10,0,0,0-2.93,7.74,15,15,0,0,0,4.23,10.51A11,11,0,0,0,520.53,213.33Zm-2.46-15.93a6.68,6.68,0,0,1,4.59.6c1.11,1.8,1.21,3.9.11,5a6.21,6.21,0,0,1-1.52,1.32,4.69,4.69,0,0,1-3.93-.3c-1-.71-1.51-2.15-1.68-3.89A6,6,0,0,1,518.07,197.4Z" transform="translate(-6.11 -14.13)"/><path d="M475,336.45c-3.31.61-6.39,2-5.88,6.22.25,2,1.6,3.5,4.28,3.3,3.12-.73,5.9-2.31,5.63-6.26A3.39,3.39,0,0,0,475,336.45Z" transform="translate(-6.11 -14.13)"/><path d="M656.48,141.62a4.09,4.09,0,1,0,5.78-5.78L650,123.59a4.08,4.08,0,0,0-5.78,5.77Z" transform="translate(-6.11 -14.13)"/><path d="M790.17,307a178.55,178.55,0,0,1-19.63,0c-11.12-.42-22.64-.85-34.12,2.18a13.3,13.3,0,0,1-5.87-1.83c-1.67-2-3.29-3.93-4.74-5.9a11.2,11.2,0,0,1-.66-3.49c-.21-11,10.4.79,14-6.35-1.73-2.4-6.23-16.58-8.3-19.7-.28-.43-.54-.92-.8-1.41a43.7,43.7,0,0,0-3.5-6.93c-.26-.45-.59-.89-.89-1.33,13.05-4.08,37.92-12.22,43-14.4a4.09,4.09,0,0,0-3.25-7.5c-5.36,2.32-36.11,12.3-46.37,15.4a26.53,26.53,0,0,0-4.32-2.42,6.61,6.61,0,0,1-2.07-1.54,11.5,11.5,0,0,1-1.71-5.54c1.21-2,6.25-13.53,3.66-16.24-1.43-6.61-6.52-11.47-10.72-15.44-1.48-1.4-3-2.8-4.31-4.26-.56-.61-18.67-21.17-22.87-25.14-1-1,.48-8.4,2.27-10.46a49.82,49.82,0,0,1,7.72-5.81,67.93,67.93,0,0,0,20.29-10.91c7.2-4.79,12.57-11.31,14.73-20.62a57.86,57.86,0,0,0,2-6.65c1.52-6.53,5.64-11.78,10.15-17.19.39-.42.77-.85,1.16-1.26,2.77-2.9,5.91-5.24,7.53-9.33.21-.51.39-1,.58-1.51a34.49,34.49,0,0,0,5.1-13.71l.28-.46a9.86,9.86,0,0,0,1.62-3.89c.79-5.45-1.3-10.19-5.87-13.74-3.45-3.52-9.44-5.61-18.88-5.74-13.8-2.44-27.67.27-42.22,8.25l-2.6.88a60.09,60.09,0,0,1-17.15,3.58c-.4-.21-.77-.37-1.19-.62a19.08,19.08,0,0,0-14.75-1.76c-3.08-.72-6.18-1.36-9.27-1.95h0a60.55,60.55,0,0,0-29.65-5.6,41.44,41.44,0,0,0-11.75-.86c-10-2.94-19.1-8.4-27.65-14.54-.82-.61-1.65-1.22-2.49-1.82-2-1.46-3.91-2.94-5.82-4.42l-.25.31C535.09,28.8,504.57,19,472.86,16.42a31.35,31.35,0,0,0-4.48-1.52c-6.48-1.73-12.62-.33-18,2-11,.51-21.52,2.12-31.72,5.9-10.65,3.93-20.31,4.94-31.46.57-9.24-3.63-20.33-7.33-29.91-3.71-13.91,5.24-27.72,4.28-41.55,3.2a44,44,0,0,0-11.31-2.13c-37.85-1.22-68.78,7.85-94.45,27.76-14.38,11.14-30,22.09-48.9,23a22.37,22.37,0,0,0-5.07.87,255.83,255.83,0,0,0-32.67,5.31,19.08,19.08,0,0,0-14.75,1.76c-.42.25-.79.41-1.19.62A60,60,0,0,1,90.3,76.53l-2.61-.88C73.14,67.67,59.27,65,45.48,67.4,36,67.53,30,69.62,26.6,73.14c-4.58,3.55-6.67,8.29-5.88,13.74a9.86,9.86,0,0,0,1.62,3.89l.29.46a34.48,34.48,0,0,0,5.09,13.71c.2.5.38,1,.58,1.51,1.62,4.09,4.76,6.43,7.53,9.33.4.41.77.84,1.16,1.26,4.51,5.41,8.63,10.66,10.15,17.19a57.86,57.86,0,0,0,2,6.65c2.16,9.31,7.54,15.83,14.73,20.62a67.93,67.93,0,0,0,20.29,10.91,49.82,49.82,0,0,1,7.72,5.81,50.47,50.47,0,0,1,6.62,10.07c.32.62-.81,3.6-1.94,4.66-4.19,4-21.2,23.33-22.87,25.14-1.34,1.47-2.83,2.87-4.31,4.26-4.2,4-14.07,21.36-9.81,26.06a31.82,31.82,0,0,0,2.46,5.1,14.34,14.34,0,0,0-3,8.63c-13.4-5.3-34.06-12.7-48.84-12.39a4.09,4.09,0,1,0,.17,8.17c12.89-.31,32.28,6.56,45,11.56a4,4,0,0,0,2.65,4.57c2.07.69,3.44,1.57,3.76,2.41.23.62.3,2.22-1.87,6-3,5.2-5.84,10.48-8.68,15.76L47.46,305s0,.06,0,.09c-2,3-4.29,16.84-4.35,16.8-.34,2.55-.63,5.16-1,7.71-.27.82-.55,1.64-.84,2.49a42.51,42.51,0,0,0-2.42,9.44,15.84,15.84,0,0,1-1.38,2.21c-4.64,0-9.28,0-13.92,0l-9.25,0a4.09,4.09,0,1,0,0,8.17l9.27,0c7.12,0,14.22,0,21.33,0,2.35,0,4,.54,4.9,1.52,1.33,1.44-.87,12.47-.77,14.5.05,1.1-.89,3.75-.91,4.86-.08,3.86,1.79,14.44,2.41,16,3.07.22,10.34-5,12-6.14,2.38-1.74,3.63-2.48,5.07-2.37l.28.24a69.73,69.73,0,0,0-2.89,18.44c-.87,3-1.68,5.93-2.39,8.91a15.2,15.2,0,0,1-6.89,1.28,4,4,0,0,0-4.58,3.51,4.09,4.09,0,0,0,3.51,4.59,16.94,16.94,0,0,0,2.11.13,19.38,19.38,0,0,0,4.19-.52,54.54,54.54,0,0,0,.53,18.64c.66,3.11-.06,8.55,4.25,7.39,4-1.07,6.47-.93,8-.08,1.24,8.89,2.73,17.78,4.24,26.56a48,48,0,0,0,2.4,14.07c.46,2.68.93,5.36,1.38,8.05a4.07,4.07,0,0,0,4,3.41l.68-.05c2.22-.37,7-21.27,15.18-23.42.06.66.1,1.29.14,1.94a95,95,0,0,0,4.8,35.63c1.35,6.94,3.37,13.71,7.4,19.95,1.57,2.44,3.35,4.42,6.31,4.36,4.67-.07,4.62-3.69,5.12-7.11A130.57,130.57,0,0,1,129,511.33c.24-.59.46-1.06.69-1.58a18.84,18.84,0,0,1,3.69-3.27c.51,2.92.62,27.35,2.62,36.68,1,11.49,3.37,22.75,10.83,33.41,4.24-6.18,6.19-20.79,6.35-21.88.2-1.33,3.72-5.27,5.23-6,4.07,3.36,5.63,25.16,7.92,30.95A53,53,0,0,0,173,594.89c2,3.1,2.76,8.33,8.26,7.55s4.85-5.14,5-9.32c.33-6.82,1.56-13.52,7.93-18.39,5.65,5.41,7.65,12.65,10.13,19.54,2.82,7.86,7.54,14.35,13.16,20.37,2.9,3.08,5.74,5.93,10.42,4.73,5.08-1.31,5.17-5.41,5.4-9.61.32-6,.18-13.81,7.82-14.14,8.5-.37,9.88,8.1,11.5,14.59,1,3.88.48,8.11.85,12.17,0,.35.07.7.1,1-.06,1.26-.1,2.51-.23,3.82-.65,7,.8,13.49,2.21,19.8.16.69.3,1.37.45,2.06.59,6.6,1.12,13.2,1.5,19.81-.19,4.6-.28,9.2-.32,13.69-.14,15.25-1.88,24.76-3.4,39.68-.06.63-.28,6.51-.33,7.35-.41,6.82-.33,15.66.29,17.67a2.71,2.71,0,0,0,2.19,3.16,2.85,2.85,0,0,0,3.22-2.42c.26-1.47.56-2.93.92-4.38,1.17-2.6,2.81-7.54,3.83-10.13,1.27-3.21,1.88-4.07,3-7.27,1.85-3.44,3.14-7.86,5.42-11.85,1.32,5.57,2.2,11.5,3.05,16.36,1,8.13,2.83,13,1.32,21.44-.05,1.55,1.08,11.81,1.87,12.07a4.43,4.43,0,0,0,1.28.2,4.08,4.08,0,0,0,3.88-2.81,281.39,281.39,0,0,0,10.19-41.59c4.56,16.67,11.53,56.15,13.74,56.58l.79.07a4.08,4.08,0,0,0,4-3.3c.82-4.16,1.67-8.33,2.52-12.49,1.94-9.45,3.86-19.12,5.38-28.89,3.59,15.92,8.05,33.37,12.74,45.36.1.57,2.76,3.41,3.95,3.41h0a4.1,4.1,0,0,0,4.05-4.13c-.11-9.13.33-18.21,1-27.29a79.82,79.82,0,0,0,1.46-8.66c3.87,15.37,13.84,44,13.84,44,0,1.23,1.35,3.12,1.35,3.13.12.27.25.33.39.24a4,4,0,0,0,2.23.83h.12a4.09,4.09,0,0,0,4.08-4,172.26,172.26,0,0,1,2.24-20.6l.69-4.71a84,84,0,0,0,1.68-9.91c5.53,10.81,12.8,20.69,17.86,31,0,0,1.85,4.09,4.08,4.09h0c2.26,0,4-13.81,4-18.66,0-3.79,0-7.61,0-11.46q.76,1.8,1.53,3.57c2.7,6.29,20.54,29.6,22.67,29l.11,0c2.17-.64,2.41-6.11,2.16-6.67a4.1,4.1,0,0,0,0-.5c-.66-4.22-1.4-8.43-2.14-12.64-1.24-7-2.42-13.74-3.23-20.48,6,12.45,13.16,23.57,18,31.17.06.14.17.24.24.37s.58.91.6.93l0,0c.11.14.2.2.28.2a4,4,0,0,0,2.58,1.05h.08a4.1,4.1,0,0,0,4.09-4c.16-8.12-3.22-24.67-3.32-25.18-.24-6.29-2.49-21.44-2.38-22.83,9.81,12.68,18.77,24.57,26.12,40l0,.16a4.08,4.08,0,0,0,4.05,3.63l.46,0c2.24-.26,1.72-16.19.53-21.8a155.92,155.92,0,0,1-3.12-18.36q-.08-4.25-.13-8.54c.08-1.35.23-2.7.42-4.05a225,225,0,0,1,22.22,32.83c.49,1.19.93,2.34,1.5,3.59a3.49,3.49,0,0,0,1.16,1.36c.05,0,.1.12.14.11a4.25,4.25,0,0,0,2.32.71,4,4,0,0,0,1.89-.47c2-1-1.52-12.67-3.68-19-1.31-8.39-2.94-16.86-5.18-25.5,0-.21,0-.42,0-.63,3.37,3.71,6.54,7.42,9.33,11.14,4.64,5.5,8,12.4,11.28,19.44.62,2,4.12,8.72,5.81,8.72A4.24,4.24,0,0,0,514,752a4.1,4.1,0,0,0,2.29-2c.17-.07.23-.23.17-.55a4,4,0,0,0,0-2.63,182.12,182.12,0,0,1-5.92-21.12c-2.79-35-3.67-59.89-2.45-78.72.82-7.27,1.86-14.77,3.17-22.61.07-.42.11-.89.17-1.31a81.36,81.36,0,0,1,8.39-21.69c16.19,5.77,8.08,24.19,18.3,35.76,9.31-13.42,15.35-27.93,26.94-38,3.08,2.49,2.46,5.27,2.75,7.8.45,4,2,13.9,2,14.56a4.08,4.08,0,0,0,4.08,4.08c2.26,0,9.37-11.66,12-14.85,8.53-10.44,11.53-24,19.38-36.93,4.84,6.92,8.17,26.41,10.32,27.08a4,4,0,0,0,1.22.19,4.09,4.09,0,0,0,3.9-2.87c.26-.85,7.48-33.75,17.87-45.05,7.37,5.89,7.42,28.84,13.3,22,8.62-10.06,11.49-14.2,14.36-29A86.05,86.05,0,0,0,670.69,518c.25-1.7.5-3.44.77-5.28a5.51,5.51,0,0,1,2,.75c.37.62.73,1.21,1.14,1.92,1.71,3,7.38,21.94,14.51,20.77,8.64-1.42,5.92-13.79,8.28-21,1.8-5.52,1.48-11.71,1.28-17.89a99.29,99.29,0,0,0-.25-14.63c-.15-3.13.12-6.17,3-8.56,7.63,1.69,9.54,8.5,12.89,14.34.19.5.37,1,.56,1.5.8,2.05,1.6,4.1,2.22,6.15A4.08,4.08,0,0,0,721,499a4.3,4.3,0,0,0,1.17-.17,4.1,4.1,0,0,0,2.75-5.09c-.49-1.62-6.23-46.49-10.72-67.4,8.63,1.29,14.72,15.66,15.28,17a4.09,4.09,0,0,0,7.56-3.11c-.66-1.59-10.45-27.91-12.74-40.05-.16-.95-.41-8.38-.54-9.35,8.54-9.28,11.57,2.83,13.83,12.42,0,.17.47,5,2.62,5.67a4.29,4.29,0,0,0,1.22.18,4.09,4.09,0,0,0,3.9-2.87,13.5,13.5,0,0,0,.52-2.86h0c.32-3.89.48-8.92,3.51-11.94a31.56,31.56,0,0,1,3.23.7c3.18.82,11.91,1.4,15.7.07a4.09,4.09,0,0,0-2.71-7.71c-1.46.51-8.7.31-11-.27a23.14,23.14,0,0,0-7.81-1,34.26,34.26,0,0,1-9-10.07,27.36,27.36,0,0,0-3.71-10.75,102.07,102.07,0,0,1-7.22-15.8,5.75,5.75,0,0,1,.68-4.24l15,3.33.89.1a4.09,4.09,0,0,0,4-3.2c.37-1.67-3-7.28-3.84-8.74a30.35,30.35,0,0,0-4.49-15,5.14,5.14,0,0,1,.51-2.08c9.93-2.4,20-2,30.57-1.64a187.61,187.61,0,0,0,20.54,0,4.09,4.09,0,0,0-.6-8.15Zm-76.46-40.83a9.9,9.9,0,0,1,5.88,1.72c.52.93,1,2,1.62,3.18a40,40,0,0,0,2.81,5.31,21.64,21.64,0,0,1,2.46,4.65c-.16,3.37-3.14,4.57-8.65,3.61-4.45-.77-8.19-5.33-13.86-2.35,1.08,5.77,5.73,8.92,9.35,12.77a37.06,37.06,0,0,0,6,11.38,5.43,5.43,0,0,1-.49,3c-6.13,1.72-12.53,1.72-19.31,1.65-3.36,0-6.78,0-10.22.17-1.79-1.76-3.27-4.47-4.27-8.63-4-16.59-5.83-22.58-1.94-27.1a94.86,94.86,0,0,1,11.9-3.23C701.26,270.86,707.68,269.36,713.71,266.12ZM418.42,68c4.47,6.66-.83,15.5,7.44,20a3,3,0,0,1,1.05.93c.09.58.15,1.14.23,1.72a7.36,7.36,0,0,1-3.23,3.45c-2.73,1.61-5.39.21-6.8-2.21C412.53,84,416.4,76.53,418.42,68ZM355.58,89.52a2.91,2.91,0,0,1,1.06-.93c8.26-4.52,3-13.36,7.43-20,2,8.56,5.89,16,1.31,23.91-1.4,2.41-4.06,3.82-6.8,2.21a7.41,7.41,0,0,1-3.23-3.45C355.43,90.66,355.49,90.1,355.58,89.52ZM70,257c1-.84,4.93-7.44,7.24-10a9.65,9.65,0,0,1,7.06-1.68,4.09,4.09,0,0,0,1.12-8.1,18.34,18.34,0,0,0-13.72,3.7c-2-.26-.57-9,3.29-12.64,1.62-1.53,3.24-3.07,4.71-4.67a4,4,0,0,0,.76-1.26c3.57-5.1,18.2-20.16,21.71-23.47,1.62-1.53,3.24-3.07,4.71-4.68a3.81,3.81,0,0,0,.93-2c3.06.86,6.16,1.78,7.41,2.16,3.64,1.12,8.17-.1,11.45-2a4.09,4.09,0,0,0-4.15-7,13,13,0,0,1-6.26,1.41c-.65,0-8.35-3.31-11.78-4.52-.62-1.1-1.27-2.21-2-3.33a14.61,14.61,0,0,0-4.62-6.17,27,27,0,0,0-10.91-7.95c-18.31-6.46-28.13-16.44-31.84-32.37a34.72,34.72,0,0,0-2.8-7.58c-1.87-6.43-6.52-11.22-11.42-16-.27-.27-.52-.55-.78-.82-4.57-5.56-8.54-11.08-9.41-18.1a5.87,5.87,0,0,0-.38-1.31,27.54,27.54,0,0,1,.61-7.81c2.72.53,4.43.33,5.22,1.09,6.28,6,12.43,12.19,18.64,18.29A116.58,116.58,0,0,0,68.56,113.3c.13.1.26.21.39.3a53.84,53.84,0,0,0,17.69,9.33A4.08,4.08,0,1,0,89,115.11a45,45,0,0,1-12.9-6.35c-2.88-3.06-6.48-5.51-9.7-8.3q-1.92-1.9-3.81-3.91c-.2-.25-.43-.46-.61-.72a41,41,0,0,0-5.37-5.76c-2.32-2.54-4.71-5.08-7.18-7.53A21.33,21.33,0,0,1,46,75.6c12.8-2.49,25.8.17,39.7,8.24l1.75,1,.8.48a42.41,42.41,0,0,1,9.18,11.26c4-3.12,6.92-5.39,9.71-7.5a26.7,26.7,0,0,0,5.67-2.6,9.13,9.13,0,0,1,1.75-.77c2.42.11,4.59,1.76,6.83,5.18C130,104,131.4,104,142.83,93c5.12-4.93,10.3-9.64,16.3-12.89a13.4,13.4,0,0,1,2.39-.4c21.28-1,38.1-12.79,53.5-24.73,24.11-18.69,53.2-27.22,89.18-26,.51,0,1,.1,1.51.15a63.76,63.76,0,0,1,15,7.19,14.1,14.1,0,0,1-.62,1.57c-16.84,9.72-58.1,11.77-60.67,11.72h-.07a4.09,4.09,0,0,0-.07,8.17c.83,0,1.67,0,2.5,0,2.54,0,5.07-.12,7.6-.22,23.33,2.11,46.76,3.36,69.2,11.33,7.33,2.61,10.17,12.33,10.6,13.78-.62-1.48-8.12-3.35-8.12-2.74-9.74-4-20.12-6.33-27.64-2.22-9.16,5-17.39,5.3-25.94,6-7.56.65-14.43,1.54-20.82,2.72-15.28,1.9-30.32,6.85-45.48,12.39a4.09,4.09,0,0,0,1.4,7.93,4.26,4.26,0,0,0,1.4-.25c13.48-4.93,26.35-9.24,39.15-11.37,24.58-.44,47.7,8.26,71.27,11.18-1.53,14.12-16.68,2.35-18.39,14.34,13.1,9.47,30,11.62,43.59,20.64,13.88,9.21,16.65,26.23,28,37.36-16.54-4.51-44.78-26.81-45.59-27.69a4.09,4.09,0,1,0-6,5.53c.82.88,1.57,1.8,2.36,2.7,5.87,29.07,26.67,37.56,47.36,28.73a27.1,27.1,0,0,0,7.28-2.75,8.68,8.68,0,0,1,3.92.68c14.78,5.54,30.94,5.7,41.59-5.48C448.42,170,453.5,155.09,460.4,142a5.75,5.75,0,0,0-2-7.29c-3.27-2.27-6.89-1.75-8.64,1.78-4.43,8.95-13.48,13.33-19.49,20.62-5.34,6.49-12.36,8.11-20,7.67-4.7-.27-8.72-6.59-6.56-7.88,11.82-7,11.08-23.51,23.73-29.54,13.24-6.33,23.65-17.18,39.28-20.4,6.19-1.27,12.87-4.73,18.5-9.15,3-1.13,5.91-2.33,8.81-3.7a4.08,4.08,0,1,0-3.48-7.39C487.8,88,452,97.15,435.29,89.91c-.24-1.81-.53-3.62-.84-5.45,17-8.85,34-8.37,49.69-11.71,18.64-4,36,4.12,53.87,7.72,12.68,2.56,22.64,11.29,34.2,16.42l1,.82.43.34c.28.48.57.93.85,1.43a4.1,4.1,0,0,0,3.55,2h0c1.89,1.48,3.75,3,5.66,4.42a4.08,4.08,0,0,0,4.92-6.52c-2.95-2.23-5.85-4.55-8.75-6.86A99.46,99.46,0,0,0,570.32,79a30.49,30.49,0,0,0-15.07-12.08l-2.62.93c-2.65-2.35-5.29-4.73-8-7.06-5.51-4.82-12.37-4.56-19.19-5.32-29.26-3.25-56.63,4.82-83.89,13.38-5.44,1.72-9.59,1.69-12-3.46-2.13-4.62,2-6.5,5-9.44,6.77-6.59,14.53-8.78,22.94-10.66a25.27,25.27,0,0,0,7.86.31c5.46-.91,9.63-1.3,15.31-3.46,2.11-.8,2.29-3.19,1.07-5.09s-5.47-1.86-7.59-1.1c-4.79,1.73-14.36-.09-16.77-.24-2.62-.16-4.64-2.88-5-5.79a6,6,0,0,1,2-5.75c3.76-1.49,14.51-.44,19.23.26h.07a4,4,0,0,0,1.83.67c31.67,2.52,59.83,12.36,84,29.23,1.93,1.46,3.88,2.9,5.87,4.31,2.66,2,5.29,4.15,7.85,6.38l.42.37c5.46,4.77,11.68,10.17,21.3,8.74.33,0,.65,0,1-.09a64.64,64.64,0,0,0,9.23,1.79C611.65,79.41,618,83.51,625,86.6c1,.93,2,1.85,3,2.8,11.44,11,12.82,11,21.44-2.08,2.24-3.42,4.41-5.07,6.83-5.18a9.13,9.13,0,0,1,1.75.77,26.7,26.7,0,0,0,5.67,2.6c2.79,2.11,5.67,4.38,9.71,7.5a42.41,42.41,0,0,1,9.18-11.26l.8-.48,1.75-1C699,72.17,712,69.51,724.77,72a21.33,21.33,0,0,1-3.41,6.94c-2.47,2.45-4.86,5-7.18,7.53a41,41,0,0,0-5.37,5.76c-.18.26-.41.47-.61.72q-1.89,2-3.81,3.91c-3.22,2.79-6.81,5.24-9.7,8.3a44.87,44.87,0,0,1-12.9,6.35,4.08,4.08,0,0,0,2.34,7.82A53.84,53.84,0,0,0,701.82,110l.39-.3A117.45,117.45,0,0,0,716,96.57c6.2-6.1,12.36-12.26,18.63-18.29.79-.76,2.5-.56,5.22-1.09a27.93,27.93,0,0,1,.62,7.81,5.4,5.4,0,0,0-.39,1.31c-.87,7-4.84,12.54-9.4,18.1-.27.27-.51.55-.79.82-4.9,4.74-9.54,9.53-11.42,16a34.72,34.72,0,0,0-2.8,7.58c-3.71,15.93-13.53,25.91-31.84,32.37a27,27,0,0,0-10.91,8,14.61,14.61,0,0,0-4.62,6.17c-.31.48-.59,1-.88,1.45-3.53,1.27-10.94,4.45-11.57,4.45a13.11,13.11,0,0,1-6.26-1.41,4.09,4.09,0,0,0-4.15,7c3.28,1.93,7.8,3.16,11.45,2,1.64-.51,6.16-1.62,9.59-2.33,1.43,1.55,3,3,4.56,4.52,3.5,3.31,18.14,18.37,21.71,23.47a4,4,0,0,0,.75,1.25c1.47,1.61,3.1,3.15,4.72,4.68,3.85,3.64,6.72,6.54,7.94,9.71-1,1.85-12.65-1.56-18.38-.77a4.08,4.08,0,1,0,1.12,8.09,9.7,9.7,0,0,1,7.06,1.69c2.81,3.08,5.13,5.73,6.91,8a19.39,19.39,0,0,0,1.27,5.73,20,20,0,0,0,3.23,5.6,7.28,7.28,0,0,1-1.46,2.3,86.94,86.94,0,0,1-12.66,3.52,92,92,0,0,0-14.36,4.06c-7-.91-7-5.59-12.07-18-7-17.24-21.23-29.38-33.52-42.14-5.67-5.89-11.3-12.31-18.29-19.64a45.84,45.84,0,0,0-3.11-4.6c-.73-.94-5.68-.76-5.73-.72a4.1,4.1,0,0,0-.72,5.74,38.33,38.33,0,0,1,2.79,4.17c4.26,21.43,9.77,38.91,25.87,53.34,13.31,11.94,14.75,21.78,5.95,29-9.3,4.22-19.2,6.58-29.59,9-4.19-.73-8-2.94-11.51-7.46-2.4-3.09-6.32-5.06-9.7-7.31-11.84-7.88-15.08-6.6-16.24,7.23-.53,6.29-.23,12.67-3.48,17.95-3.52,1.19-7.17,2.13-11,3.09-4.23,1.06-8.52,2.19-12.76,3.7a12.57,12.57,0,0,1-7.53-3.19c-3-6.33-7.06-11.92-11-17.37a114.08,114.08,0,0,1-9.5-14.5c-3.93-7.58-13.23-12.71-26.9-14.83-2.55-.39-5-.9-7.37-1.48-8-3.52-13.72-9.74-15.87-19.55,5.94,5.52,10.09,4.69,11.93-4.22l-.54-.43c17.28,5.92,32.05,8.72,44.89,6.78a28.88,28.88,0,0,0,16.22-5.68c10.42-6.11,19.37-17,27.31-34,6.64-7.34,14.33-13.49,24.31-17.24a4.09,4.09,0,1,0-2.87-7.65,64.79,64.79,0,0,0-17.67,10.19c-3-.11-6-.37-9-.76a15.92,15.92,0,0,0-9-1.6A117.16,117.16,0,0,1,540,172.34a63.39,63.39,0,0,0-7.12-2.07c-14.35-5.24-22.4-3.28-33.55,7.28a43.4,43.4,0,0,0-4.63,4.66c-1.47,1.55-2.91,3.12-4.34,4.7-2,2.23-4,4.38-6.06,6.45-2.11,1.8-4.3,3.54-6.5,5.18-4.41,3.29-10.48,5.91-14.32-.16a10.17,10.17,0,0,1-1.64-5.73,35.24,35.24,0,0,1,5.42-8.48,9,9,0,0,1,1.91-.65c23.66-4.89,30.7-31.25,57.64-36.87-11.12-7.8-16.49-13.19-26-11-8.91,2.11-11.22,12.54-19.41,15.91a15.06,15.06,0,0,1,.64-9.82c.39-.5.73-1,1.18-1.51,1-1.1,1.9-2.25,2.85-3.42,3.45-4.24,6.71-8.24,11.53-9.89a4.09,4.09,0,0,0-2.65-7.73c-7,2.41-11.38,7.75-15.22,12.46-.88,1.09-1.76,2.17-2.66,3.2-4.89,5.58-7.14,11.45-6.89,17.17-.17.66-.35,1.31-.51,2a123.42,123.42,0,0,1-9.6,26,41.09,41.09,0,0,0-6.59,11.5c-1,1.6-2.11,3.18-3.22,4.74-5.55,7.73-12.39,12.21-22.42,10.9-19.63-2.57-39.32-1.44-59-.11-9.18.62-16.44-1.94-22.56-6.92a36.19,36.19,0,0,0-8.95-10.65c-.36-.29-.68-.59-1-.89-4.45-7-7.44-14.48-10.11-22.14-2.31-12.68-8.24-24.53-18.78-37.72a4.05,4.05,0,0,0-5.31-.86c-.16-.11-.28-.23-.43-.34,0,.18.09.32.13.5-.05,0-.1,0-.14.07a4.09,4.09,0,0,0-.63,5.74,96.62,96.62,0,0,1,12.1,18.8c.5,1.29,1.08,2.57,1.67,3.86a59.66,59.66,0,0,1,3.66,13.57,13.07,13.07,0,0,1-1.76,5.24c-5.85-23.65-30.35-39.74-63.72-35.68a99.15,99.15,0,0,0-12.27-.19l-.7,0-1.16.05a4.09,4.09,0,0,0-3.88-4.16,4.15,4.15,0,0,0-4.28,3.89,8,8,0,0,0,2.09,6.36c2.34,2.32,5.56,2.15,7.69,2l.61,0c3.13-.14,6.18-.15,9.15-.05,7.55,3,14.33,7.52,20.79,12.87,6.72,5.57,14.8,9.64,21,15.7,3,2.91,8.38,5.48,13.63,7.08a4.33,4.33,0,0,0,1.68.48h0c3.82,1,7.38,1.48,9.69,1.12a5.72,5.72,0,0,0,1.47,1c5.79,2.91,10.65,7.81,15.6,12.19,2.52,2.23,4.4,5.32,3.2,9-1.36,4.2-5.32,3.27-8.45,3.83-10.22,1.8-18.78-1.92-27-6.69-2.51-1.62-5.05-3.42-7.66-5.41-3.4-3.31-6.8-6.62-10.78-9-1.55-1.41-3.13-2.86-4.75-4.4-6.89-6.58-14.46-5.67-20.53-4.94-1.77.21-3.44.41-5,.44a15.69,15.69,0,0,0-6.61,2c-1.87.9-3.65,1.71-5.18,1.58-3.87-.4-13.65-1.39-19.84,4.55-1.24.1-2.48.17-3.73.19l-22.36-8.6a4.09,4.09,0,0,0-2.93,7.63L213,196.05a51.87,51.87,0,0,1,3.45,4.85c-.89,11,7.06,19.43,14.7,23.49,1.08.57,2.18,1.23,3.27,1.85,1.36.83,2.76,1.62,4.15,2.37l.21.11c7.83,4.55,16.7,9.51,26.22,9.51a27.93,27.93,0,0,0,16.63-5.71c4.33-1.58,11.12-3.53,12.33,5.09,1.12,8-5.5,18.15-11.87,18.21-8.91.07-17.86-.35-26.75.17-12.58.73-22.38-3.79-29.8-13.83-8.6-11.64-17.22-23.27-27.07-36.59-23.11,32.39-4.58,60.16,5.07,90.3L189,292.81c-1.86-.85-3.77-1.7-5.69-2.39-7.47-2.65-15-5-22.65-7.11-8.26-12.93-1.92-27.56-1.44-41.26.33-9.27,4.79-18.23,3.18-28.07-3.88-23.75,2.73-43.85,20.21-61,1.83-1.8,4.49-3.51,6.64-5.74,2.19-1.44,4.44-2.86,6.84-4.25a4.08,4.08,0,1,0-4.09-7.07,133.7,133.7,0,0,0-17.39,11.87c-20,11.61-31,27.3-36.66,50.85-1.44,5.93-2.94,12-5.58,17.44-6.66,13.75-6.53,27-1,41.28,4.86,12.68,5.51,17.51-1,18.46-9.65-2.12-19.27-4.07-28.78-6q-8.51-1.71-17-3.45a31.83,31.83,0,0,0-16.84.79C66.64,262.43,66.7,259.69,70,257ZM629.86,321.4c-6.16-.13-19.52-13.95-20.53-21.72a10.85,10.85,0,0,1,.89-6.81l1.41-.33c11.43-2.64,23.22-5.4,34.25-10.82,6-.48,9.21,3.72,11.92,10.77C666.57,315.28,660.19,322.07,629.86,321.4ZM554.06,338a26.64,26.64,0,0,0,2.7-.53c5.75-.23,11.38-.26,16.8-.14a5.56,5.56,0,0,1,.65,1.68c4.77,22.49,12.23,6.27,21.25,1.11,1.42,11.93,1.73,19.83-12.7,17.26-6.5-1.16-13.48.18-20.22.65-.28,0-.53,0-.8,0-1.64-.1-3.26-.26-4.87-.5-3.73-1.1-5.82-4-6.06-9.58C550.63,343.92,548.63,338.71,554.06,338Zm-6.8-15.4c-.06-.74-.11-1.47-.19-2.21-.08-1.52-.11-3.07-.23-4.49a8.35,8.35,0,0,1,2.18-6.75c3.69-1.29,7.53-2.3,11.52-3.3A129,129,0,0,0,573.85,302c6.14,3.82,8,10.4,5.9,18.91-1.15,4.64-3.33,7-6,8.26-7-.16-14.43-.09-22,.39C548.6,328.45,547.63,325.7,547.26,322.59ZM495.9,364.11a88.33,88.33,0,0,0,14.64,0c6.71-.38,13.08-.71,19.15,1.15,1.21,1.87.78,4.67-.54,8.51a130.32,130.32,0,0,0-7.39,13.88c-11.1,14.24-28.68,17.63-45.51,21.8-1.79.12-3.58.27-5.36.43-5.95.53-11.58,1-17,.21-4.19-.65-8.6-.14-12.87.35-2.55.29-4.78.5-6.79.56-11.2-2.13-17.28-11.24-23.15-20.36-4.16-6.45,2.41-8,5.83-10.51,9.22-6.73,17.57-12.27,25-20.43,7.28-4.8,9.84-9.39,13.84-20.48a85.27,85.27,0,0,0,4.38-9.24,18.88,18.88,0,0,0,5-10.17,14.8,14.8,0,0,0,.18-2.85,8.09,8.09,0,0,0-2.72-8.28l-1.17-1c-3-3.48-7.2-6-10.3-7.82-4.5-2.68-9.83-.5-14.54,1.43-1.07.43-2.12.87-3.14,1.23-14.81,5.23-28.25,8.54-41,8-.75-.05-1.5-.07-2.25-.14l-1.14-.11c-1.4-.15-2.81-.37-4.23-.59a56.68,56.68,0,0,1-23.22-9.86c-5.08-3.6-12.31-3-17.59,1.45-4.87,4.11-6.41,10.12-3.93,15.32.64,1.35,1.18,2.76,1.75,4.15,2.48,13.93,7.32,27.21,17.37,37.18a45.58,45.58,0,0,0,5.53,5.6,18.11,18.11,0,0,0,7.1,3.71c5.45,3.29,10.61,6.74,14.44,12,3.29,4.54,4.41,9.71,3.4,13.95a33.77,33.77,0,0,1-7.51,7.91,14.37,14.37,0,0,1-2,.45c-13.73,2.08-27,8-40.73,10.39-10.74-.12-21.74-2.8-33.91-6.76a6.91,6.91,0,0,0-7.42,2,25,25,0,0,1-4.91-.11c-14.92-2.1-24.58-10.26-30.19-23.92-2.2-5.34-2.12-8.94.88-11.4,5.28-1.92,11-2.62,16.94-3.34,6.93-.83,14.1-1.69,20.94-4.61a4.09,4.09,0,0,0-3.2-7.52c-5.77,2.46-12.06,3.22-18.72,4-6.84.83-13.88,1.7-20.63,4.52-5.77-.91-8.54-5.67-9.23-11.86a7.3,7.3,0,0,1,.62-4.64c4.51-1,9.26-.77,14.21-.56a88.54,88.54,0,0,0,11.17,0,4.08,4.08,0,1,0-.66-8.14,84.13,84.13,0,0,1-10.16,0c-5.8-.25-11.76-.47-17.78,1.1-3.05-1.33-5.1-3.86-5.34-8.22-.37-6.6-1.14-14.55,8-15.71a141.8,141.8,0,0,0,17.55,5.54,4.09,4.09,0,0,0,3-7.5,4,4,0,0,0-1.11-.45,131.67,131.67,0,0,1-15.89-5c-2.58-7.07,6.22-10.69,7.8-16.43,3.14-11.35,8.7-18.6,15.82-23.24,5.46-.67,10.3-3.16,14.74-5.92a93.75,93.75,0,0,1,17.58-1.89c3.19.87,6.4,1.56,9.56,2.21,10.33,2.13,20.09,4.14,26.88,12.69a4,4,0,0,0,3.2,1.54,4.08,4.08,0,0,0,3.2-6.62c-6.15-7.74-13.85-11.17-21.85-13.35a8.79,8.79,0,0,0-5.05-1.26c-1.58-.35-3.16-.68-4.73-1a85.35,85.35,0,0,1-14.91-4,8.75,8.75,0,0,1,.09-3.72c1.62-7.67,8-6.74,14.39-6.51,11.17.41,15.79,2.75,26.12,5.94,1.44,1.5,4.7,5.53,6,6.86l10.21,10.21a4.08,4.08,0,0,0,5.77-5.78L358.28,248.9c-1.29-.77-3.52-4.21-4.24-4.31-1.08-2.46-2.11-1.41,1-5.27,12.22,13.42,32,16.08,42.77,33,7-6.4,13-12.59,20.2-17.31,6.4-4.17,11.87-7.77,18.2-7.67l-10.6,11.83a4.08,4.08,0,1,0,5.77,5.78l4-5.62,5.73-5.67,3.92-3.89a36.49,36.49,0,0,1,5.18,3.35c8.88,6.81,24.22,6.21,36.78,7,11.7.71,19.41,5,25.39,13.46q1.31,2.23,2.73,4.38c.46.82.92,1.59,1.36,2.47,8.46,17.12,11.6,22.65,6.07,28.08-6.42,1.13-14.64,3.67-20.86,5.55a4,4,0,0,0-2.78,4.52,1.24,1.24,0,0,0,.5,1.48,4.05,4.05,0,0,0,3.46,2,4.14,4.14,0,0,0,1.19-.18c5.87-1.78,22.39-7.27,29.32-8.63a7.73,7.73,0,0,1,4.05,3.55c3,5.26,1.55,10.35-2,14.55a145,145,0,0,0-19.73,4.4,4.09,4.09,0,0,0,1.18,8,4,4,0,0,0,1.18-.18,135.81,135.81,0,0,1,18.58-4.14A8.93,8.93,0,0,1,540,342.7c.33.53.54,1,.81,1.53a51,51,0,0,0,1.76,7.12c-.43,3.59-3.39,6-8.78,6.68-8.06-2.94-16-2.52-23.74-2.08a82.36,82.36,0,0,1-13.32,0,4.08,4.08,0,1,0-.87,8.12ZM288.48,588.06c1.57-3.83-1-12.34-.77-12.17s6.8,17.12,9.19,27c1.59,6.51,4.6,16.77,6.64,24.25,4.76,17.44,8.1,29.37,11.75,28.43.95-.25,4,1.34,4.93,1.36,3.61.08,7-2.09,9.1-3.63,15.31-11.38,34.69-2.08,49.83-11.8.65-.42,7.38.36,7.74.67,13.53,11.71,30.55,3.09,42.35,12.51a10.22,10.22,0,0,0,4,1.59,11.44,11.44,0,0,0,3.9.73,10.73,10.73,0,0,0,3.46-.64l.27-.08c.21-.07.41-.13.61-.21a20.88,20.88,0,0,0,9.69-6.72c3-3.5,15.53-32.35,21.06-40.42,3-4.35,3.42-13.66,7.55-21,3.86,13.61,1.74,24.26-1.56,34.82-2.21,7.07-4.67,14.06-7.22,21-7.63,20.82-16.44,29.78-32.4,29.43a146.49,146.49,0,0,1-16.88-3l-.76-.16c-.37-.1-.71-.18-1.08-.29-20.57-6.09-40.75-8.37-60.74-4.13a93.37,93.37,0,0,0-23.84,7.27,56.19,56.19,0,0,1-7.52,3,21.21,21.21,0,0,1-12.17-1.72c-.32-.21-.63-.36-1-.6-1.9-1.34-3.83-2.7-5.5-4-.4-.38-7.25-8.92-7.64-9.34-1.53-2-5.12-15.87-5.11-17.61.12-14.54-10.46-42.06-7.66-40.94C288.88,601.82,287.6,590.2,288.48,588.06Zm57.64-128c6.24-2.27,10.67-3.12,14.52-1.85a25,25,0,0,1,6.85,4.13c3,2.33,10.55,7.28,11.48,8.15,6,5.59,5.79,16.28,5.43,18.57-2.75,15.71,5.53,31.8,5.23,34.47.2,2.59.41,10.46,2.81,11.1,0,0,6.59,2.06,7.36-4,.92-7.21-3.89-17.7-4-19.06-.55-4.48.76-14.78,2.12-16.35,2-7.4,13-11.11,16.7-18.05,3.31-6.29,17.77-16.12,23.76-13.42s11.86,5.8,10.49,15.21c-2.9,19.95-15,56.88-11.38,76.93,1.36,7.53-1,15.17-4.52,22.38-3.84,7.83-7.69,16.15-16.67,17.14-8.77,1-10-7.13-12.49-13.35a23.41,23.41,0,0,0,3.54-3.28c1.21-1.26,1.61-4.41.2-7.69a11.61,11.61,0,0,0-.61-1.29,7.49,7.49,0,0,0-5-3.42,13.29,13.29,0,0,0-7.81,1.14,14.23,14.23,0,0,0-5.72-3.52c-4.9-1.55-10.37-.3-17.23,3.95a32.7,32.7,0,0,0-6.59,5.66c-5.78,5.23-11.11,11.8-19.22,6.92-8.88-5.35-8.26-15.84-7.16-25.21,1.58-13.47,4.33-29.93-4.71-40.88-10.48-12.69-15.71-26.62,0-40.15C334,473.85,340.37,462.11,346.12,460Zm-.53-40.14a69.63,69.63,0,0,0,8.84-1.25c2.3,5,.41,9.76-5.17,15.23C347,428.71,343.61,424.38,345.59,419.88Zm16.07,1.79c4,2,5.95,4.15,6.6,6.64a23.73,23.73,0,0,0-1.22,4.5c-.29,1.74-.45,3.47-.65,5.21-.67,1.52-1.45,3.14-2.32,4.89C358.34,433.5,358.47,428,361.66,421.67ZM370,330.45A44.65,44.65,0,0,0,356.74,326c-1.93-.28-3.85-2-5.42-3.68-1.15-3.12-2.36-6.24-3.81-9.27a3.71,3.71,0,0,1-.32-1.19,9.11,9.11,0,0,1,1.1-3.27,8.22,8.22,0,0,1,1-1.1,7.49,7.49,0,0,1,5.35-1.84,37.62,37.62,0,0,1,4.91,2.54c25.5,16.42,51.86,10.77,76.6,2,1.14-.4,2.33-.88,3.52-1.37,1.77-.73,5.24-2.14,6.74-2.09.92.45,1.78.9,2.56,1.36s1.42.9,2.08,1.35c6.37,4.73,5,10-3.59,16.41l-.22.14c-2.57,3.26-4.63,1.06-11.72,6.7-.54.43-3.77,2.44-4.25,3.26-9.6,4-17.86,2.7-28,4.22-9.82,1.47-17.63-1.78-25.13-5.57A27.44,27.44,0,0,0,370,330.45Zm4.87,28.09a11.57,11.57,0,0,1-4-.72c-.28-.2-.55-.39-.83-.62A42.77,42.77,0,0,1,359,342.3c-.05-1.75.75-3.37,3.26-4.43.34-.14.69-.25,1-.36a20.45,20.45,0,0,1,11.8,5.24C377.08,347.71,378.17,353.21,374.88,358.54Zm72.23-19.2c-1.54,4.53-5.21,8.8-6.5,11.12-.65,1.79-6.8,8.23-11.19,6.55-3.19-3.44-.28-5.66-.18-11.1,2.06-5.34,10.24-8,10.64-8.47s1.42-1,5.77-.48A4.22,4.22,0,0,1,447.11,339.34Zm-49.62,57.05c3.86,3.14,8,5.22,11.63,7.63,1.46,1.54,2.91,3,4.32,4.44,1.15,1.16,2.26,2.31,3.36,3.47a19,19,0,0,1,1.41,3.18c-8.07,5.88-16.21,4.64-24.41,2.75a12.51,12.51,0,0,0-7.95-2c-.19,0-.36.06-.55.07a34.65,34.65,0,0,0-11.16-.58c7.46-2.58,13.84-5.94,18.33-12.51A54,54,0,0,0,397.49,396.39Zm21.19,31.27a7.61,7.61,0,0,1,3,.9l3.21,8.83c.06,3.77-.35,7.42-5,9.43-5.86-.9-7.14-5.36-7.46-10.17-.18-2.83-1.23-6.44,1.2-8.11A30.64,30.64,0,0,0,418.68,427.66Zm-14.16,9.16c-.37,2.35-.07,6.4-4.72,6.07a3.29,3.29,0,0,1-3-2.32,15.81,15.81,0,0,1,.77-3.76,24.36,24.36,0,0,0,1.27-6.44,5.24,5.24,0,0,1,2.05-.23C403.88,430.38,404.62,433.25,404.52,436.82Zm-14-5.45a14.63,14.63,0,0,1-.68,2.72,24,24,0,0,0-1.25,6.55c-.86,2.41-2.24,4.37-5.32,4.81-5.69.82-6.64-5-7.37-9.57-.9-5.58,1.28-8.73,7-9.77C387.84,425.23,389.44,427.82,390.53,431.37Zm38.81-5.54c1-5.75,5.6-6.86,11.05-6.66a8.19,8.19,0,0,1,2.93.62,3.24,3.24,0,0,0,0,.44c.53,2.26,1.25,4.45,1.94,6.56.12.36.22.7.34,1.06-1.13,5.5-3.64,9.94-9.74,11.2a14.15,14.15,0,0,1-2.26-1.46Zm15.83,210.05c-.18,4.14-.44,8.25-4.84,10.38-4.57,2.22-7.69-.84-10.9-3.23-4.54-3.4-5.41-7.57-2.17-12.37a34.9,34.9,0,0,0,3.54-7.57,12.15,12.15,0,0,0,2.26-4.52,30.54,30.54,0,0,1,1.91-4.93c1-1.54,3.43-20.95,5-22.21C447,599.3,445.57,626.54,445.17,635.88Zm-28.82-6.62c-.65,2.6-1.4,5.33-4.53,5.55-3.92.26-3.33-3.28-3.47-5.43-.15-2.37-.05-5.51,3.67-5.43C415.35,624,416,626.61,416.35,629.26ZM377.2,602.4A33.42,33.42,0,0,0,365,604.18c-3.4,1.2-7.66-1.37-9.34-5.32-1.2-2.82-.48-7.6,1.06-9.41,6.15-2.93,9.43-4.3,12.93-8.33a35.73,35.73,0,0,1,6.84-6.36c2.81-1.82,5.7-1.84,7.69-2.27,5.06,1.39,9.58,9,18.15,23.8,1.5,2.6,3.94,3,3,10C399.68,605.2,381.13,601.67,377.2,602.4Zm19,28.21c-.39.51-2.79.37-3.15-.19a9.48,9.48,0,0,1-.65-1.21c-.05-.89-.13-1.78-.22-2.67-.06-.59-.13-1.36-.18-2.14a14.72,14.72,0,0,1,1.8-4.19l.62-.05C396.8,624.78,398.58,627.56,396.16,630.61Zm-12.58-5.79c-.48,1.08-1.11,4.14-2,4.22a4.47,4.47,0,0,1-4.88-3.31c-.07-.44-.16-.88-.25-1.32.05-1.66,1.05-4.31,2-4.53C381.27,619.27,383.28,620.92,383.58,624.82Zm-16,4.36c-.31,3-1,5.91-4.36,5.9-4.94,0-7.14-3.34-7.29-7.85-.09-2.83,1.21-5.68,4.44-5.68C365.24,621.55,367.24,624.87,367.56,629.18ZM401.2,577.1a53.93,53.93,0,0,0-3.26-4.66c-.05-.09-.11-.18-.17-.27a4.45,4.45,0,0,1,3.23-1.06C404.15,571.57,404.73,576.74,401.2,577.1Zm-63.6,61.47c-5.48,2.18-6.86-2.66-8.49-6-.34-.68-.6-1.37-.87-2.06-1.89-7.4-5-36.29-3.11-43.71,7.32,5.45,16.87,36.91,21.36,42.9C350.11,634.54,342.77,636.51,337.6,638.57ZM326.9,444c-2.24,9-6.68,12.11-6.61,27.37-13.78-10.72-24.57-41.09-18.25-54.32.16-.17,3.47-1.6,3.6-1.8,7.28,2.35,12.95,2.38,20.66,3.63C331.89,424,330.68,428.83,326.9,444Zm137.28,30.49c1-27.33-2.48-41.07-12.23-53.73-.24-.8-.47-1.61-.67-2.42,0,0,0-.06,0-.1l.44-.17c.33,0,.67,0,1,.08a62.75,62.75,0,0,0,14.42.24,12.69,12.69,0,0,0,2.12.21c17,0,20.35,3.62,16,19.13C482,448.89,476.65,464.82,464.18,474.49ZM231.69,303.55c-12.41.13-12.4-8.82-15.11-15.3s-3.75-13.18,2.43-18.42c1-.89,4.39-.58,5.56.45,6.38,5.6,13.91,4.91,21.27,4.07s9.32,5.53,7,8.39C246.46,290.81,238.17,297.39,231.69,303.55Zm62.56-81.71c-2.57-3.52.06-9.19.76-12.13,1.95,1.37,6.26,3.16,8.18,4.33C303,215.89,296.68,219.85,294.25,221.84Zm185-12.67a3.08,3.08,0,0,1,.3-1.11c1.33-.89,2.62-1.8,3.84-2.78a8.2,8.2,0,0,1,2.47,1.07c.49,1.19,1,2.36,1.54,3.49a56.85,56.85,0,0,1,2.26,5.47c.08,1,.14,2,.17,3-2.4-.78-4.78-1.59-7.12-2.39l-1.29-.44A8.7,8.7,0,0,1,479.2,209.17Zm15.84-9a23.56,23.56,0,0,1,2-8.41c1.41-1.56,2.82-3.12,4.27-4.64,12.94-13.54,17.77-14.62,36-6.23,4.05,4.58,6.34,11.16,6.23,19.07a27.14,27.14,0,0,1-13.48,23.45c-6.4,2.34-14.22,1.53-25.94-1.11a27,27,0,0,1-6.83-9.87q-.36-1.05-.78-2.07A29.91,29.91,0,0,1,495,200.2Zm57.07-12.14c0-1.64.45-3.21,1.79-3.78a12.92,12.92,0,0,1,2.88.12c1.93.88,2,3.19,2.25,4.83a8,8,0,0,1-.1,1.23c-.89,1.06-1.74,2.16-2.6,3.25a2.71,2.71,0,0,1-.41.09C552.38,193.67,552.15,190.76,552.11,188.06ZM280.16,223.12c-10.58,9.86-20,7.71-30.15,2.51a25.37,25.37,0,0,1-5-8.53,38.15,38.15,0,0,1-1.12-3.68l.06-.62c.63-7.21,1.23-14,4.58-20.09a27.76,27.76,0,0,1,4.87-3.73,56.39,56.39,0,0,0,5.75-.49c6.09-.72,10-1,13.92,2.74,3.57,3.4,7,6.45,10.28,9.23.28.69.63,1.33.86,2.06A22.18,22.18,0,0,1,280.16,223.12Zm-41-29.3c-2.2,6-2.75,12.23-3.28,18.28-.14,1.61-.28,3.17-.45,4.7l-.31.45-.13-.08a22.14,22.14,0,0,1-8-7h0c-.32-.49-.57-1-.84-1.52a17,17,0,0,1-1.53-6.65,13.36,13.36,0,0,1,.27-2.39c1-4.38,3.41-7.33,11.35-7.33.46,0,1,0,1.47,0A5.41,5.41,0,0,1,239.12,193.82ZM47.21,343.93l-.32-.25c0-2.63,3.11-9.49,3.55-10.19,1.53-2.51.75-11.7.46-15.35-.09-1.26,2.38-6,3.58-9,.05-.07.11-.13.15-.2l3.68-6.81c2.81-5.21,5.62-10.43,8.57-15.56,1.69-2.93,3.69-7.15,2.86-11.37a23.7,23.7,0,0,1,13.12-.79c5.67,1.18,11.35,2.32,17,3.47,10.14,2,20.4,4.1,30.66,6.39,8.66,8.19,15.67,18.93,25.93,27.54,1.37,1.52,2.74,2.94,4.06,4.23a4.07,4.07,0,0,0,2.85,1.15c.13,0,.25-.06.38-.07,1.41.88,3.83-.82,3.33-2.38a4.08,4.08,0,0,0-.86-4.56c-.67-.64-1.26-1.27-1.87-1.9-3-6-6.14-11.23-3.89-16.51,6.76,1.93,13.46,4,20.07,6.39,1.83.65,3.67,1.5,5.56,2.36,4.66,2.12,10,4.57,16,4.57l.41,0c10,3.64,19.79,7.69,26.62,18.15,4.66,7.14,4.24,11.37-1,14.72a28.19,28.19,0,0,1-14.58,4.5,52.73,52.73,0,0,1-9.09-1.91c-.44-.21-.89-.37-1.31-.62-3.05-1.8-3.69-3.81-3.28-5.92a143,143,0,0,1,9.48-12.1,4.09,4.09,0,0,0-6.22-5.3c-5.16,6.05-10,12.15-13.67,18.74-8.46,8.53-20.5,8.18-32.11,8.64-7.85.31-13-3.14-12.37-12.12a27.42,27.42,0,0,1,.73-3.53l.82-1.95c.82-1.93,1.63-3.85,2.3-5.81a4.09,4.09,0,0,0-7.73-2.65c-.61,1.77-1.35,3.52-2.1,5.28-1.72,4.08-3.53,8.48-3.91,13.27a22.57,22.57,0,0,1-10.59,7.27h-3.16c-14.36,0-29.21-.06-43.83.11a32.29,32.29,0,0,1-6.69-1c-1.09-.24-2.26-.49-3.47-.71,0-2.42,0-4.74.23-6.91.11,0,.2-.08.31-.1l-.28-.26a24.46,24.46,0,0,1,.65-3.49c1-2.14,2.41-4.16,3.4-6.45.21-.22.37-.46.59-.68a4.06,4.06,0,0,0,.22-5.52c-.06-.33-.61-.8-.85-.72a4,4,0,0,0-5.1.42c-7.1,7-7.34,15.71-7.34,23.53v0a15.39,15.39,0,0,0-7.15,3.37A15.57,15.57,0,0,0,47.21,343.93Zm189.41,11.58c-4.41,8.49-10.55,14.67-17.49,17.75a117.75,117.75,0,0,1-14.89,1.66c-8.75-2.36-3.2-16.31-11.84-24.71,0-.12,0-.25.08-.37a81,81,0,0,1,15-.17,64.66,64.66,0,0,0,8.85,1.1C223.45,352,229.94,353.93,236.62,355.51Zm-67,29.78c-5.33.48-10.61,1.19-15.85,2-6-9.18-5.08-20.49-6.23-30.83-1.22-11,8.89-7.28,14.66-7.89,6.68-.71,14-.84,14.51,9C177.34,368.53,176.26,378.48,169.62,385.29ZM75.89,423.92a12,12,0,0,1-3.16,1,3,3,0,0,1-3.32-1.14c0-.52.07-1,.12-1.54a24.54,24.54,0,0,0-.22-8c.07-.1.11-.22.18-.31,4.61-1.73,7.74-2.35,11.21.07,0,.13,0,.3.07.45A44.2,44.2,0,0,0,75.89,423.92Zm6.44-18.33a15.9,15.9,0,0,0-9-1.16c-.73-8.54.58-17.25,4.16-27.17.34-.87.67-1.75,1-2.63.85-2.19,1.78-4.42,2.85-6.74a4,4,0,0,0-.21-3.67c.07-.53-.75-1.42-1.21-1.33a3.43,3.43,0,0,0-.58-.42,4.07,4.07,0,0,0-5.42,2c-.24.51-4.45,5.31-6,7.58-4.41-.22-7.7,2.13-10.2,4-.8.58-1.54,1.12-2.25,1.55a25.7,25.7,0,0,1-.28-5.67c0-1.29,2.79-7.88,3.57-9.92a3.58,3.58,0,0,0,.3-.87v0a4.23,4.23,0,0,0,.19-.72,22.21,22.21,0,0,0-.35-5.94c2.68-.94,5.17-2.81,7.81-4.19.76.15,1.54.32,2.4.51A41.05,41.05,0,0,0,77.65,352c14.56-.17,29.37-.14,43.71-.11h6.16a5.31,5.31,0,0,1,.79,5c-3.1,12.21-1.4,25.44-6.22,37.22l-7.62,1.9c-4.42,1.1-8.83,2.21-13.25,3.27a30.34,30.34,0,0,0-9.86,4.47,44.11,44.11,0,0,0-5.64.87C84.57,404.87,83.44,405.25,82.33,405.59Zm619.49-3.06a4.09,4.09,0,0,0-5.72-.81,4,4,0,0,0-1.56,3.37l-.07,0,.09.21a4,4,0,0,0,.73,2.11c.12.16.22.35.34.51,3.49,8.34,7.8,16.32,11.37,24.46q4.21,15.24,4.22,34.91c-7.26-2-10.3-7.74-14.29-12.25-4.39-4.95-8.64-14.06-15.64-9.94-8.46,5,.69,12,2.79,17.44,5.9,15.35,7.95,30.48,4.56,47.62a62.84,62.84,0,0,1-2.24,7.65,25.7,25.7,0,0,1-4.67-6.52,37.62,37.62,0,0,0-5.2-7.51c-4-6.54-8.32-12.49-17.08-15.79-2.72,23.69,4.59,47.5-7.06,69.81-5.8-7.15-5-15-8.72-20.32-3.55-5-5.14-14.64-13.58-12.83-9.07,2-5.93,10.59-6,17.15-.15,10.06,2,20.75-5.15,29.81-7.68-4.52-4.83-10.78-6.14-15.75-1.44-5.46-3.44-10.83-10.09-10.66s-9,4.52-9.32,11c-.33,6.68,1,8.1-1.83,16.27l-.94,3.24a78.24,78.24,0,0,0-5.19,13.1c-1.71,5.94-1.55,5.5-7,14.49-4.46-15-6.07-28.87-18.71-36.65-2.58-2.78-19.57,18.57-19.77,16-.34-4.52,5.11-48.92,2.18-51.86-.16-1.48-2.9-7.42-5.13-7.29a4.08,4.08,0,0,0-3.84,4.31c.06,1.16,0,2.35,0,3.54,0,.28-2.35,6.55-3.53,9.09A333.26,333.26,0,0,0,508.91,598c-3.41,6.1-4.23,13.08-4.88,19.1-.23,2.06-.44,4.06-.76,5.94-4.77,28.53-6.37,53.19-4.76,75.61.09,2,.15,4.06.26,6.1a91.21,91.21,0,0,0,2.73,17.44,166,166,0,0,0-15.35-18.39c-1-1-4.69-1.51-5.12-.55-1.9,4.31-1.22,21.16.49,27.56-4.22-6.84-14.87-22.24-15.75-22.79-.28-.41-.44-.53-.72-.41l-.12-.07a4.07,4.07,0,0,0-5.16,2.6c-4.67,14.17-2.17,27.6.58,40.6a378,378,0,0,0-21.43-32.24,4,4,0,0,0-2.71-2.83,4.08,4.08,0,0,0-5.07,2.76c-3.77,12.74-1.31,24.78,1.07,36.43.14.66.26,1.3.4,2-6.68-10.17-17.45-37-19.7-37.22a4.09,4.09,0,0,0-4.4,3.75c-1.14,14.25,1,28.15,3.34,41.64-2.9-3.8-5.49-7.33-6.56-9.82q-1.11-2.57-2.17-5.1c-1.59-5.59-8.4-27-9.42-28.24a4,4,0,0,0-3.11-2.14.81.81,0,0,0-.65,0,3.46,3.46,0,0,0-.46,0,4.08,4.08,0,0,0-3.4,4.67c.52,3.28.78,27.17,2,35.47,0,2.16,0,4.32,0,6.46,0,.24,0,.49,0,.73-6.28-11.93-19.1-38.64-19.34-39a2.74,2.74,0,0,0-.48-.64.73.73,0,0,0-.08-.09s-.07-.13-.12-.16c-.6-1.6-3-2.86-3.37-1.43-2,.51-3.4,4.68-3.14,6.75a65,65,0,0,1,.48,8.1,130.4,130.4,0,0,0-1.47,17.31c-.25,1.82-.52,3.65-.79,5.5-.22,1.47-.44,3-.66,4.45-4.77-15.08-15.4-51.93-17.54-52.19a4.09,4.09,0,0,0-4.53,3.58c-1.55,13-2.92,25.91-3.62,38.87-3.73-14.48-12.28-50.49-14.53-50.64a4.06,4.06,0,0,0-4.34,3.81c-.94,14.47-3.71,28.95-6.58,43.07-3.44-17.07-13.37-54.82-15.49-55A4.11,4.11,0,0,0,288,702.8a261.88,261.88,0,0,1-5.41,32.11,159.93,159.93,0,0,0-6-28.07,2.93,2.93,0,0,0-2.41-2.29,2.15,2.15,0,0,0-.79.1,6.27,6.27,0,0,0-2.93,1.85,81.92,81.92,0,0,0-8.93,15.35A109.86,109.86,0,0,0,265,698.5c.34-2.6.6-5.24.73-7.94.35-7.21.29-14.4,0-21.57.06-1.43.09-2.88.19-4.29a57.47,57.47,0,0,0-1.55-15.84c-.78-8.85-1.7-17.69-2.5-26.54a69.42,69.42,0,0,0-1.21-15.41,144.06,144.06,0,0,0-26.77-75.44c-4.23-5.92-6.58-12.9-16.5-3.55-3.82,3.61,20.6,43,11.52,40.88l.07-.11C225.85,567,208.09,551,204.76,549.1l.08-.09h-.31c-.15-.06-.25-.08-.26,0-21.46-.66-14.23,22.87-26.27,32.5a68.08,68.08,0,0,1-6.48-20.76c0-.11,0-.2,0-.31a41.93,41.93,0,0,0-.77-12.15,125.74,125.74,0,0,1,3.32-24.72c-12.63-.54-16.06,9.72-21.93,18.69a20.94,20.94,0,0,0-5.79,6.94l-.07.06a57,57,0,0,1-3.44-15.11c-.83-15.69-2-45.7-3.75-45.35a3.5,3.5,0,0,0-.45-.07,4,4,0,0,0-2.05.78c-4.88,1.82-13.94,15.63-15,18.31a31.67,31.67,0,0,1-3.7,5,48.2,48.2,0,0,1-3.7-7.35,82.13,82.13,0,0,1-3.84-18.36c-.45-8.6.48-17.18.86-25.63.33-2.23.61-4.43,1.07-6.72a4,4,0,0,0-1-3.49c0-.74-.83-1-.89-1.76-15.2.67-12.18,17.45-23.08,20.69-.72-2-1.32-4-1.87-6-.81-4.82-1.57-9.64-2.32-14.49-.71-12.86,2.15-25.29,8.13-35.27a25.21,25.21,0,0,1,11.95-7.25c4.44-1.06,8.88-2.17,13.33-3.28q5-1.26,10-2.48c3.39,2.85,3.79,8,4.08,13.06.61,10.94,2.86,21.49,7.8,31.23,16.87,33.3,48.31,47.53,80.26,60.88l.11.06.24.09.71.3c3.1,1.28,6.68,0,8.82-5.07-9.77-9.22-24.77-12.16-32.78-24.42s-19-23.25-25.43-36.4c-6.94-14.32-15.57-29-13.2-46.11q7.71-1.21,15.5-1.82c3.34,2.3,6,6.09,8.46,10.91,8.56,16.93,17.21,34.2,36.5,42,5.48,2.22,10.92,5.4,16.14-1.52-10.52-12.26-19.84-24.85-27.25-38.55-7.15-13.22-7.41-20.17.33-23.13a136.45,136.45,0,0,0,14.47-1.78h.63a25.52,25.52,0,0,1,7.86,1.28c11.57,4,16.68,13.74,15.39,26.47a214.11,214.11,0,0,0-.69,38.77c-2.06,10.59,1.67,21.12,4.65,29.45.54,1.49,1.05,2.93,1.51,4.31,7.66,22.91,15.22,47.06,23.12,73.84.19.66.44,1.24.66,1.86.84,3.89,1.62,7.79,2.28,11.72.81,4.84,1.5,9.7,2.16,14.57-.34,15.39,1.58,31.55,5.92,49.7.6,4.78,1.23,9.56,2,14.32,2.48,16.41,12.08,29.58,25.68,34.3a21.62,21.62,0,0,0,10.84,3.12c4.48,0,8.6-1.47,12.46-3.15a51.6,51.6,0,0,0,6.21-2.33c18.18-8.29,36.45-7.76,55.63-4.46,10.49,1.81,21,4.1,31.66,5.14,13,2.35,23.83,2.52,32.77-3.44,7.54-3.54,13.15-9.71,16-19.69,1.31-4.49,2.65-9,4-13.43a158.3,158.3,0,0,0,7.2-28.93c.52-2.89,1-5.8,1.32-8.75,3.4-29.49,8-58.59,21.6-86.05a184.71,184.71,0,0,0,14.39-39.4,42.55,42.55,0,0,0,4.9-19.54,39.07,39.07,0,0,0-1-8.44,142.8,142.8,0,0,0-3.21-37.15,39.92,39.92,0,0,1,1.28-22.57l0-.08c1.23-2.6,2.45-5.17,3.73-7.66a53.65,53.65,0,0,1,15.06-15.47,29,29,0,0,1,8.1-3.93c6.49,1,13,.86,19.36.7,2.35-.06,4.67-.11,7-.11,3.62.87,7.29,1.93,11,3.08-11.11,15-16,30.59-21,45.92S550,437.9,545,452.7c-.84.85-1.71,1.69-2.55,2.55a4.09,4.09,0,0,0,5.87,5.69c1.39-1.43,2.82-2.83,4.23-4.24a2,2,0,0,1,.19-.12c27.37-20.23,52.07-42.75,64.91-75.58,1.75-4.48,1.2-11.62,6.57-13.24a67.41,67.41,0,0,0,9.69,2c.84.12,1.66.26,2.49.39,5.09,3.17,4.06,8.12,3,15.64C635,416.3,617.6,441,605.21,467.87c-7.75,16.79-22.6,26.91-41.75,28.7-5.36.49-17.27,4.27-18.66,4.46a4.09,4.09,0,0,0,1.11,8.1,19.91,19.91,0,0,1,3.63-.13c19.73,13.17,42.82,10.93,63.05-5.81,4.15-3.44,8-9.33,12.53-9.85,16-1.85,20.61-13.76,24.41-25.84,8.53-27.08,18.22-54.06,17.14-83.08-.25-6.6,1.16-10,4.36-11.37,7.22.17,14.62,1.64,22.52,3.39,1.18.26,2.32.65,3.47,1,12.85,6.11,19.07,17.17,19.63,35.34C711.59,412.84,702.49,403.43,701.82,402.53Zm32.39-67.11s-8.41-1.82-8.51-1.83c-1.85-1-8.16-6.78-9.57-8.67a4.09,4.09,0,0,0-6.55,4.89,46.71,46.71,0,0,1,3.38,5.35,52.46,52.46,0,0,0,4.83,10.49c.48,1.2,1,2.4,1.44,3.64a111.08,111.08,0,0,0,7.95,17.29l.2.36a6.33,6.33,0,0,1-1.71,6.92c-4.59,4.39-11.67,1.45-16.49-2.27-5.62-4.34-11.81-4.3-18.06-4A108.85,108.85,0,0,0,671,364.85c-4.14-1.88-6.25-4.86-5.5-11.47.48-4.19-1.19-7.93-3.13-11.59-1.35-2.54-3-4.7-6-4.32s-4.46,2.73-5,5.54a50.23,50.23,0,0,0-1.22,8c-.22,8.08-2.54,12.43-12.26,11.08-8.66-1.21-13-3.36-13.45-13.32-1-20.13-1-20.93,19.13-23.66,1.35-.18,2.67-.5,4-.72,23.93-4,26.44-2.5,30.59,20.47V349c0,2.35,0,4.7,0,7a4.08,4.08,0,0,0,4.08,4.05h0a4.09,4.09,0,0,0,4-4.13c0-1.45,0-2.9,0-4.34,2-6.38.84-13.37,1.54-19.73.62-5.71,2-10,4.89-12.6q3.32-.08,6.75,0c7.43.07,15.12.14,22.76-2.24a4.19,4.19,0,0,0,.75-.41,18.55,18.55,0,0,1,5.61,1.23,37.29,37.29,0,0,1,5.31,8.76A65.19,65.19,0,0,1,734.21,335.42Z" transform="translate(-6.11 -14.13)"/></g></g></g></svg>